<svg xmlns="http://www.w3.org/2000/svg" width="24" height="48" fill="none"><g clip-path="url(#a)"><path fill="#24346D" d="M6.798 14.328c.189-.162.388-.309.595-.439a3.644 3.644 0 0 0-1.139.971 4.113 4.113 0 0 0-.426.693c.257-.469.585-.884.97-1.225ZM5.046 18.468s0 .137.013.366c0-.064 0-.132.004-.195-.004-.059-.013-.117-.017-.171Z"/><path fill="#009DAA" d="M21.43 0h-8.217C11.47.224 9.64.625 8.34 1.947c-.812.866-1.382 1.978-1.64 3.202a12.143 12.143 0 0 0-.182 3.723c.047.617.145 1.228.292 1.825.108.444.547 1.142.313 1.605a.74.74 0 0 1-.153.186c-.6.58-1.212 1.132-1.634 1.893a5.608 5.608 0 0 0-.66 2.889c.01.423.041.845.095 1.264.004.063.013.122.017.18a7.043 7.043 0 0 1 .787-3.108c.119-.249.262-.481.426-.693a3.55 3.55 0 0 1 1.14-.971c.965-.615 2.1-.893 3.186-1.02a20.187 20.187 0 0 1 3.8-.088c1.013.073 2.49.034 3.32.79.246.239.446.53.589.857.143.327.225.683.242 1.047 0 .058.018 1.063.018 1.176 0 .21-.036.418-.108.612a1.62 1.62 0 0 1-.308.519 1.424 1.424 0 0 1-.461.347 1.29 1.29 0 0 1-.545.123h-8.06v3.425c2.235.341 4.045.694 5.43 1.06.17.043.335.092.496.136A9.705 9.705 0 0 1 17.274 24a.775.775 0 0 1 .361-.127c2.356-.445 4.17-2.928 4.882-5.373a8.26 8.26 0 0 0 .326-2.201c.032-1.618-.414-3.202-1.27-4.504-.938-1.381-2.26-2.065-3.773-2.235-.93-.108-2.682-.093-3.604-.274-1.026-.205-2.404-.746-2.421-2.142.003-.431.158-.844.43-1.148a1.384 1.384 0 0 1 1.026-.477c1.113 0 2.23.034 3.343.03l4.747.219a2.32 2.32 0 0 0 1.016-.185c.324-.138.62-.348.87-.617.25-.27.45-.593.585-.95.136-.359.206-.744.206-1.133 0-.379-.066-.754-.195-1.104a2.925 2.925 0 0 0-.556-.936 2.568 2.568 0 0 0-.834-.625A2.324 2.324 0 0 0 21.429 0Z"/><path fill="#fff" d="M19.634 30.695c-.012.19-.039.386-.065.571-.04.376-.103.748-.19 1.113-.005.023-.014.044-.018.073-.021.083-.035.171-.061.259-.409 1.41-1.256 2.381-2.335 3.191a1.255 1.255 0 0 0-.304.254c-.17.234.061.41.14.615.12.266.225.542.312.824.099.364.172.736.218 1.113.317 2.465-.174 5.202-1.744 7.017-.1.117-.204.225-.308.337-1.704 1.732-4.052 1.874-6.277 1.938h-6.36c-.698-.007-1.365-.323-1.856-.88a3.166 3.166 0 0 1-.767-2.09c0-.783.276-1.534.767-2.09.49-.557 1.158-.872 1.855-.88h6.86a1.3 1.3 0 0 0 .555-.12c.176-.08.336-.2.47-.35.135-.151.241-.33.314-.528a1.787 1.787 0 0 0 .001-1.22 1.491 1.491 0 0 0-.314-.5c-.313-.317-.752-.302-1.152-.326-2.682-.196-5.586.112-7.638-2.216a4.67 4.67 0 0 1-.195-.234c-2.587-3.24-1.97-10.36 2.234-11.624 1.095-.327 2.247-.337 3.3-.747l.117.073c.035.02.074.04.109.064.004 0 .004.005.008.005l.104.058c.06.035.117.064.182.093.037.021.075.04.113.054l.157.073c.043.02.091.04.135.059.05.024.1.045.152.063.052.02.104.04.161.064.122.049.252.098.383.141l.234.078c.035.01.07.024.104.035.056.02.113.039.174.053.117.04.239.074.36.103.153.039.31.083.466.116 1.408.352 3.295.708 5.66 1.084v2.962a1.25 1.25 0 0 1-.565.136H6.767c-.048 0-.096 0-.14.005H6.62c-.596.078-1.009.596-1.209 1.216a4.47 4.47 0 0 0 .03 2.621l.06.161c.018.044.036.083.057.127.03.063.066.122.096.186.013.02.024.042.035.064a2.209 2.209 0 0 0 .161.225l.083.107c.048.053.095.102.143.156.03.03.057.058.087.083.061.049.118.097.183.142.026.019.052.043.078.063.091.06.185.114.283.161.739.351 1.565.386 2.347.522.863.136 1.733.2 2.604.19a17.93 17.93 0 0 0 2.939-.209 7.518 7.518 0 0 0 1.886-.493c.309-.101.608-.239.89-.41.1-.073.2-.132.296-.21.466-.383.85-.878 1.126-1.449.053-.116.104-.229.157-.341a7.73 7.73 0 0 0 .491-1.732c.035-.181.052-.357.087-.537l.052-.264a.02.02 0 0 1 .005-.014c.027-.086.046-.174.056-.264.017.36.015.72-.008 1.08ZM6.967 24.301Z"/><path fill="#fff" d="M5.848 34.284a.955.955 0 0 1-.082-.108l.082.108ZM5.651 34.012a1.078 1.078 0 0 1-.074-.122c.012.02.022.041.03.063.016.019.03.038.044.059ZM6.258 34.662ZM5.423 33.584c.017.044.039.083.056.127-.017-.044-.039-.088-.056-.127ZM14.874 22.837ZM5.312 30.945v-.01a.005.005 0 0 0-.005-.004c0 .005.002.01.005.014Z"/></g><defs><clipPath id="a"><path fill="#fff" d="M0 0h24v48H0z"/></clipPath></defs></svg>