<svg xmlns="http://www.w3.org/2000/svg" width="324" height="216" fill="none"><g opacity=".8"><path fill="#F7F6F6" d="M94.99 52.817 46.519 85.24l47.743 71.372 48.471-32.424L94.99 52.817Z"/><path fill="#B9BCBC" d="m117.685 120.813-.548 3.404-24.097-3.473.548-3.404 24.097 3.473Z"/><path fill="#B9BCBC" d="m105.551 108.67 3.456.496-3.832 23.726-3.461-.501 3.837-23.721ZM83.376 78.516c.035.047-4.821 3.361-10.847 7.387-6.027 4.026-10.939 7.258-10.973 7.206-.035-.052 4.821-3.361 10.847-7.392 6.027-4.03 10.917-7.253 10.973-7.201ZM101.183 74.04c.035.052-8.044 5.513-18.04 12.2-9.997 6.688-18.144 12.066-18.17 12.018-.026-.047 8.035-5.516 18.045-12.204 10.009-6.687 18.131-12.065 18.165-12.014ZM104.756 79.38c.034.052-8.044 5.517-18.04 12.204-9.997 6.687-18.145 12.066-18.17 12.014-.026-.052 8.043-5.512 18.044-12.204 10-6.692 18.131-12.066 18.166-12.014ZM108.328 84.724c.035.052-8.043 5.516-18.04 12.2-9.996 6.682-18.144 12.07-18.144 12.018 0-.052 8.04-5.517 18.04-12.204 10.001-6.688 18.11-12.066 18.144-12.014ZM111.888 90.068c.035.052-8.044 5.512-18.04 12.199-9.997 6.688-18.144 12.066-18.166 12.014-.021-.051 8.053-5.512 18.062-12.199 10.01-6.688 18.144-12.066 18.144-12.014Z"/><path fill="#F7F6F6" d="m257.07 100.641-40.708 27.231 40.096 59.939 40.708-27.231-40.096-59.939Z"/><path fill="#B9BCBC" d="m276.135 157.758-.463 2.86-20.239-2.916.467-2.86 20.235 2.916Z"/><path fill="#B9BCBC" d="m265.944 147.558 2.903.419-3.219 19.924-2.907-.419 3.223-19.924ZM247.303 122.256c.034.052-4.039 2.838-9.102 6.221-5.063 3.382-9.193 6.087-9.228 6.048-.034-.039 4.044-2.834 9.102-6.221 5.059-3.387 9.193-6.121 9.228-6.048ZM262.272 118.476c.034.052-6.744 4.648-15.12 10.26-8.377 5.612-15.233 10.13-15.267 10.079-.035-.052 6.743-4.649 15.12-10.265 8.376-5.616 15.219-10.126 15.267-10.074ZM265.274 122.96c.035.052-6.744 4.648-15.12 10.264s-15.232 10.126-15.267 10.075c-.034-.052 6.722-4.627 15.12-10.243 8.398-5.616 15.241-10.143 15.267-10.096ZM268.272 127.44c.035.052-6.748 4.648-15.12 10.264s-15.232 10.126-15.267 10.075c-.034-.052 6.744-4.644 15.12-10.265 8.377-5.62 15.237-10.117 15.267-10.074ZM271.296 131.937c.035.052-6.744 4.644-15.12 10.26-8.377 5.616-15.232 10.126-15.267 10.079-.034-.048 6.744-4.649 15.12-10.265 8.377-5.616 15.211-10.126 15.267-10.074Z"/><path fill="#F7F6F6" d="m192.668 55.443-44.417-23.757-34.98 65.403 44.417 23.757 34.98-65.403Z"/><path fill="#B9BCBC" d="m150.086 100.384-2.817.963-7.154-19.772 2.821-.968 7.15 19.777Z"/><path fill="#B9BCBC" d="m154.406 86.197 1.028 2.838-19.639 6.727-1.028-2.839 19.639-6.726ZM168.359 57.024c-.035.065-4.536-2.277-10.061-5.227-5.526-2.95-9.971-5.4-9.936-5.465.034-.065 4.54 2.276 10.065 5.227 5.526 2.95 9.967 5.396 9.932 5.465ZM179.021 68.787c-.035.065-7.491-3.857-16.654-8.756-9.162-4.9-16.558-8.925-16.524-8.99.035-.065 7.487 3.853 16.65 8.757 9.162 4.903 16.563 8.925 16.528 8.99ZM176.403 73.682c-.035.065-7.491-3.853-16.654-8.757-9.162-4.903-16.558-8.925-16.524-8.99.035-.064 7.487 3.858 16.65 8.757 9.162 4.899 16.563 8.925 16.528 8.99ZM173.785 78.576c-.034.065-7.491-3.853-16.653-8.752-9.163-4.899-16.559-8.912-16.524-8.99.034-.078 7.486 3.854 16.649 8.752 9.163 4.9 16.563 8.926 16.528 8.99ZM171.167 83.471c-.035.065-7.491-3.853-16.654-8.752-9.162-4.9-16.562-8.925-16.524-8.99.039-.065 7.487 3.853 16.65 8.752 9.162 4.899 16.563 8.925 16.528 8.99Z"/><path fill="#000" d="M171.396 0h-1.115v19h1.115V0Z" opacity=".2"/><path fill="#009DAA" d="M144.819 41.986h52.039s-4.804-22.978-26.412-22.978c-19.22 0-25.627 22.978-25.627 22.978ZM171.396 0h-1.115v19h1.115V0ZM286.706 190.007c0 .06-55.836.112-124.702.112-68.865 0-124.71-.039-124.71-.112 0-.074 55.828-.113 124.71-.113 68.883 0 124.702.048 124.702.113ZM51.101 162.95a5.458 5.458 0 0 1 3.793 1.944 9.575 9.575 0 0 1 1.931 3.888c.73 2.731.281 5.958-.496 8.675-2.955-1.058-4.783-4.212-5.616-5.871-1.296-2.618-2.07-8.147.375-8.64M60.584 180.77a4.639 4.639 0 0 1-.216-4.657 6.17 6.17 0 0 1 3.715-2.985c.721-.224 1.56-.315 2.186.104a1.983 1.983 0 0 1 .764 1.862 4 4 0 0 1-.864 1.909c-1.438 1.949-3.183 3.569-5.616 3.767"/><path fill="#009DAA" d="M60.912 189.899a2.827 2.827 0 0 1-.134-.566c-.078-.406-.181-.929-.306-1.556a16.31 16.31 0 0 1-.32-5.231 9.939 9.939 0 0 1 1.94-4.843 6.624 6.624 0 0 1 1.118-1.136c.114-.09.232-.173.355-.25a.478.478 0 0 1 .13-.078c-.547.467-1.047.986-1.491 1.551a10.3 10.3 0 0 0-1.85 4.786c-.276 2.013.066 3.858.264 5.184.104.661.19 1.197.238 1.568.034.189.053.379.056.571Z"/><path fill="#009DAA" d="M52.052 167.111c.05.068.09.142.12.22.079.173.182.389.303.661.264.574.63 1.408 1.076 2.441.89 2.069 2.082 4.946 3.326 8.152a210.977 210.977 0 0 1 3.024 8.259c.372 1.063.661 1.927.864 2.528l.216.691c.031.079.053.162.065.246a1.07 1.07 0 0 1-.104-.233c-.065-.173-.147-.398-.255-.679l-.911-2.505a471.833 471.833 0 0 0-3.093-8.234 433.666 433.666 0 0 0-3.27-8.169c-.432-1.024-.765-1.858-1.011-2.467-.113-.276-.203-.497-.273-.674a1.517 1.517 0 0 1-.077-.237ZM57.4 183.859a10.875 10.875 0 0 0-8.433-5.24c-.864-.06-1.926.086-2.315.864-.39.778.13 1.728.725 2.359a9.285 9.285 0 0 0 10.053 2.246"/><path fill="#009DAA" d="M50.298 180.96a3.05 3.05 0 0 1 .548.022c.214.011.426.036.636.073.246.048.535.074.838.16.338.072.67.164.998.277.378.121.749.266 1.11.432.83.372 1.616.837 2.341 1.386a11.856 11.856 0 0 1 1.936 1.918c.245.31.472.635.678.972.186.292.356.593.51.903.13.253.245.512.345.778.087.197.16.399.22.605.065.172.112.35.143.531-.047 0-.255-.743-.838-1.849a9.582 9.582 0 0 0-.523-.864c-.21-.327-.438-.643-.682-.946a11.518 11.518 0 0 0-4.208-3.249 12.014 12.014 0 0 0-1.084-.432 9.566 9.566 0 0 0-.98-.298c-1.21-.332-1.992-.371-1.988-.419ZM129.168 101.321l-15.293 78.538-1.987 10.282 101.952-.493c4.579-.022 8.64-4.087 10.104-10.126l18.084-74.144c1.119-4.584-1.335-9.353-4.808-9.349l-103.214.108c-2.246-.004-4.259 2.121-4.838 5.184Z"/><path fill="#000" d="m129.168 101.321-15.293 78.538-1.987 10.282 101.952-.493c4.579-.022 8.64-4.087 10.104-10.126l18.084-74.144c1.119-4.584-1.335-9.353-4.808-9.349l-103.214.108c-2.246-.004-4.259 2.121-4.838 5.184Z" opacity=".5"/><path fill="#009DAA" d="m204.072 174.528-10.8-87.01c-.432-3.563-3.278-6.224-6.635-6.211l-23.674.073a6.478 6.478 0 0 0-4.678 2.074l-11.232 11.953-65.837.354c-4.022.022-7.115 3.832-6.584 8.109l10.027 80.417c.432 3.56 3.279 6.216 6.627 6.212l114.761-.229c12.778.264 14.001-3.508 14.001-3.508-14.671 3.245-15.976-12.212-15.976-12.234Z"/><g fill="#fff" opacity=".5"><path d="m154.587 157.127-3.871 4.156-29.808-26.819 3.871-4.156 29.808 26.819Z"/><path d="m149.096 129.388 4.277 3.849-26.97 28.966-4.281-3.849 26.974-28.966Z"/></g><path fill="#009DAA" d="M220.458 44.833a.794.794 0 0 1-.488-.704l-.173-4.01a.808.808 0 0 1 .29-.657.804.804 0 0 1 .699-.163 2.514 2.514 0 0 0 1.953-.385 2.245 2.245 0 0 0 1.007-1.477 2.307 2.307 0 0 0-.484-1.728 2.598 2.598 0 0 0-1.702-1.024 3.022 3.022 0 0 0-3.067 2.16.808.808 0 0 1-1.556-.432 4.652 4.652 0 0 1 4.809-3.356 4.169 4.169 0 0 1 2.803 1.654 3.94 3.94 0 0 1 .791 2.968 3.886 3.886 0 0 1-1.728 2.557 4.198 4.198 0 0 1-2.186.713l.134 3.093a.809.809 0 0 1-1.123.774l.021.017ZM221.642 46.474a.662.662 0 1 1-1.32.091.662.662 0 0 1 1.32-.09Z"/><path fill="#009DAA" d="M206.578 39.178a1.89 1.89 0 0 0 .039-.26c0-.19.047-.431.082-.773.043-.419.113-.834.212-1.244.056-.242.086-.51.172-.782.087-.272.173-.566.268-.864a14.895 14.895 0 0 1 2.16-4.117 14.468 14.468 0 0 1 4.541-3.948 14.244 14.244 0 0 1 3.201-1.322 14.485 14.485 0 0 1 3.693-.484c.657-.01 1.314.024 1.966.104.333.035.661.12.994.177.336.058.668.139.993.242a13.83 13.83 0 0 1 3.841 1.74 14.453 14.453 0 0 1 5.711 7.172c.578 1.579.871 3.248.864 4.93a13.9 13.9 0 0 1-.903 5.07l-.195.493-.026.065.026.065c1.085 2.493 2.16 4.942 3.176 7.314l.181-.208-6.48-2.484-.078-.03-.065.06a14.464 14.464 0 0 1-6.108 3.526 14.391 14.391 0 0 1-11.664-1.81 14.778 14.778 0 0 1-3.642-3.392 14.352 14.352 0 0 1-2.765-6.626l-.133-1.124c-.039-.328 0-.596-.022-.825-.022-.229 0-.38 0-.505a.09.09 0 0 0 .055-.032.087.087 0 0 0-.068-.14.087.087 0 0 0-.059.023.083.083 0 0 0-.027.057.087.087 0 0 0 .018.06.088.088 0 0 0 .055.032v1.339c0 .328.073.704.117 1.132a15.45 15.45 0 0 0 .738 3.05 15.826 15.826 0 0 0 1.979 3.672 14.886 14.886 0 0 0 3.668 3.456 14.572 14.572 0 0 0 11.841 1.892 14.689 14.689 0 0 0 6.186-3.56l-.143.03 6.48 2.498.324.125-.142-.333c-1.028-2.372-2.091-4.817-3.171-7.314v.126l.199-.506c.63-1.655.944-3.413.924-5.184a14.44 14.44 0 0 0-.864-5.037 14.69 14.69 0 0 0-5.836-7.305 13.966 13.966 0 0 0-3.94-1.771 6.83 6.83 0 0 0-1.011-.238c-.337-.06-.669-.147-1.006-.177a14.869 14.869 0 0 0-1.992-.112 14.505 14.505 0 0 0-3.75.51c-1.131.32-2.22.776-3.244 1.356a14.494 14.494 0 0 0-4.566 4.04 14.79 14.79 0 0 0-2.13 4.18c-.091.312-.177.61-.255.865a7.61 7.61 0 0 0-.164.79 8.272 8.272 0 0 0-.182 1.253c-.025.333-.043.588-.056.778a1.09 1.09 0 0 0-.017.285Z"/></g></svg>