<svg xmlns="http://www.w3.org/2000/svg" width="24" height="48" fill="none"><path fill="#24346D" d="M6.8 14.328c.188-.162.387-.309.595-.439a3.644 3.644 0 0 0-1.14.971 4.113 4.113 0 0 0-.425.693c.256-.469.585-.884.97-1.225ZM5.048 18.468s0 .137.013.366c0-.064 0-.132.004-.195-.004-.059-.013-.117-.017-.171Z"/><path fill="#009DAA" d="M21.43 0h-8.215C11.472.224 9.64.625 8.342 1.947c-.812.866-1.382 1.978-1.64 3.202a12.143 12.143 0 0 0-.182 3.723c.047.617.145 1.228.291 1.825.11.444.548 1.142.313 1.605a.74.74 0 0 1-.152.186c-.6.58-1.213 1.132-1.634 1.893a5.608 5.608 0 0 0-.661 2.889c.01.423.042.845.096 1.264.004.063.013.122.017.18a7.043 7.043 0 0 1 .787-3.108c.118-.249.261-.481.426-.693a3.55 3.55 0 0 1 1.14-.971c.964-.615 2.1-.893 3.186-1.02a20.185 20.185 0 0 1 3.8-.088c1.012.073 2.49.034 3.32.79.246.239.446.53.589.857.142.327.225.683.242 1.047 0 .058.017 1.063.017 1.176 0 .21-.036.418-.107.612-.071.194-.176.37-.308.519a1.426 1.426 0 0 1-.461.347 1.29 1.29 0 0 1-.545.123h-8.06v3.425c2.235.341 4.044.694 5.43 1.06.17.043.335.092.495.136A9.705 9.705 0 0 1 17.276 24a.775.775 0 0 1 .36-.127c2.357-.445 4.17-2.928 4.883-5.373a8.26 8.26 0 0 0 .326-2.201c.032-1.618-.414-3.202-1.27-4.504-.938-1.381-2.26-2.065-3.773-2.235-.93-.108-2.682-.093-3.604-.274-1.026-.205-2.404-.746-2.421-2.142.003-.431.158-.844.43-1.148a1.384 1.384 0 0 1 1.026-.477c1.113 0 2.23.034 3.343.03l4.747.219a2.32 2.32 0 0 0 1.016-.185c.324-.138.62-.348.87-.617.25-.27.449-.593.585-.95.136-.359.206-.744.206-1.133 0-.379-.066-.754-.195-1.104a2.927 2.927 0 0 0-.557-.936 2.567 2.567 0 0 0-.834-.625A2.324 2.324 0 0 0 21.431 0Z"/><path fill="#1B6792" d="M19.636 30.695c-.013.19-.039.386-.065.571-.04.376-.104.748-.191 1.113-.005.023-.013.044-.018.073-.02.083-.034.171-.06.259-.41 1.41-1.257 2.381-2.335 3.191a1.255 1.255 0 0 0-.304.254c-.17.234.06.41.139.615.121.266.226.542.313.824.099.364.171.736.217 1.113.318 2.465-.174 5.202-1.743 7.017-.1.117-.204.225-.309.337-1.704 1.732-4.051 1.874-6.277 1.938h-6.36c-.698-.007-1.364-.323-1.855-.88a3.166 3.166 0 0 1-.767-2.09c0-.783.276-1.534.767-2.09.49-.557 1.157-.872 1.855-.88h6.86a1.3 1.3 0 0 0 .554-.12c.176-.08.336-.2.47-.35.135-.151.242-.33.315-.528a1.79 1.79 0 0 0 0-1.22 1.492 1.492 0 0 0-.313-.5c-.313-.317-.752-.302-1.152-.326-2.683-.196-5.586.112-7.638-2.216a4.67 4.67 0 0 1-.196-.234c-2.586-3.24-1.969-10.36 2.235-11.624 1.095-.327 2.247-.337 3.3-.747l.117.073c.034.02.073.04.108.064.005 0 .005.005.009.005l.104.058c.06.035.117.064.182.093.037.021.074.04.113.054l.157.073c.043.02.091.04.135.059.05.024.1.045.152.063a7.285 7.285 0 0 0 .544.205c.073.024.152.05.234.079.035.01.07.023.104.034.056.02.113.039.173.053.118.04.24.074.361.103.152.039.309.083.465.116 1.409.352 3.296.708 5.66 1.084v2.962c-.177.09-.37.136-.565.136H6.768c-.047 0-.095 0-.139.005h-.008c-.596.078-1.009.596-1.209 1.216a4.47 4.47 0 0 0 .03 2.621l.06.161c.018.044.035.083.057.127.03.063.065.122.096.186l.035.064a2.212 2.212 0 0 0 .16.225c.027.033.057.072.083.107.048.053.096.102.144.156.03.03.057.058.087.083.06.049.117.097.183.142.026.019.052.043.078.063.09.06.185.114.282.161.74.351 1.565.386 2.348.522.862.136 1.733.2 2.604.19.982.011 1.965-.059 2.938-.209a7.518 7.518 0 0 0 1.887-.493c.309-.101.607-.239.89-.41.1-.073.2-.132.296-.21.466-.383.85-.878 1.126-1.449.052-.116.104-.229.157-.341a7.73 7.73 0 0 0 .491-1.732c.035-.181.052-.357.087-.537l.052-.264v-.008l.005-.006a1.43 1.43 0 0 0 .056-.264c.017.36.014.72-.008 1.08Z"/><path fill="#fff" d="M6.969 24.301ZM5.85 34.284a.955.955 0 0 1-.083-.108l.083.108ZM5.653 34.012a1.078 1.078 0 0 1-.074-.122c.012.02.022.041.03.063.016.019.03.038.044.059ZM6.26 34.662ZM5.425 33.584c.017.044.039.083.056.127-.017-.044-.039-.088-.056-.127ZM14.876 22.837ZM5.314 30.945v-.01a.005.005 0 0 0-.005-.004c0 .005.002.01.005.014Z"/></svg>